<?xml version="1.0" standalone="no"?>
<!DOCTYPE svg PUBLIC "-//W3C//DTD SVG 20010904//EN"
 "http://www.w3.org/TR/2001/REC-SVG-20010904/DTD/svg10.dtd">
<svg version="1.0" xmlns="http://www.w3.org/2000/svg"
 width="512.000000pt" height="512.000000pt" viewBox="0 0 512.000000 512.000000"
 preserveAspectRatio="xMidYMid meet">

<g transform="translate(0.000000,512.000000) scale(0.100000,-0.100000)"
fill="#C5BDD8" stroke="none">
<path d="M158 4771 c-56 -11 -105 -50 -133 -105 l-25 -50 0 -2056 0 -2056 25
-50 c28 -56 76 -93 138 -105 68 -13 3146 -11 3208 2 34 8 64 23 90 46 55 50
69 105 69 269 l0 132 63 7 c34 4 115 20 179 36 631 154 1134 655 1292 1287 39
157 50 247 50 432 0 300 -52 526 -181 785 -196 397 -528 701 -941 865 -111 44
-299 93 -399 105 l-63 7 0 132 c0 164 -14 219 -69 269 -26 23 -56 38 -90 46
-59 12 -3149 14 -3213 2z m3202 -161 c20 -20 20 -33 20 -2050 0 -2017 0 -2030
-20 -2050 -20 -20 -33 -20 -1593 -20 -1407 0 -1575 2 -1595 16 l-22 15 0 2039
0 2039 22 15 c20 14 188 16 1595 16 1560 0 1573 0 1593 -20z m313 -461 c401
-81 762 -319 1005 -663 209 -297 317 -697 284 -1058 -54 -596 -410 -1100 -947
-1345 -141 -64 -382 -133 -466 -133 -18 0 -19 15 -19 424 l0 425 57 16 c156
45 310 163 409 310 169 256 178 572 22 836 -94 161 -262 295 -431 344 l-57 16
0 425 c0 424 0 424 21 424 11 0 67 -9 122 -21z m-28 -1032 c241 -122 378 -416
321 -688 -45 -210 -186 -374 -398 -462 l-38 -16 0 94 0 95 38 19 c92 48 180
156 214 263 24 79 24 197 0 276 -34 107 -122 215 -214 263 l-38 19 0 95 0 94
38 -16 c20 -8 55 -24 77 -36z m-50 -379 c40 -59 55 -107 55 -178 0 -90 -42
-187 -99 -226 l-21 -15 0 241 0 241 21 -15 c12 -8 31 -30 44 -48z"/>
<path d="M1595 4000 c-635 -71 -1138 -530 -1270 -1160 -9 -41 -13 -87 -9 -102
12 -56 98 -72 129 -24 7 11 19 50 25 86 17 96 67 244 113 335 267 532 842 812
1429 694 241 -48 468 -171 651 -353 183 -182 316 -430 358 -670 14 -82 38
-116 83 -116 39 0 76 35 76 71 0 13 -9 63 -20 110 -127 576 -585 1013 -1170
1115 -109 19 -293 25 -395 14z"/>
<path d="M1150 3217 c-136 -25 -232 -114 -265 -242 -20 -81 -22 -674 -1 -750
19 -74 50 -127 96 -169 55 -49 117 -75 204 -84 220 -23 362 49 427 215 21 54
23 77 27 350 5 337 -4 430 -46 513 -72 136 -248 203 -442 167z m214 -181 c28
-14 48 -36 65 -71 l26 -49 0 -321 0 -321 -25 -49 c-37 -72 -90 -98 -192 -93
-58 2 -83 8 -104 24 -40 29 -64 65 -74 110 -13 55 -12 620 0 666 12 41 50 92
84 110 58 32 156 29 220 -6z"/>
<path d="M2110 3219 c-107 -21 -201 -93 -243 -188 -15 -34 -21 -66 -20 -126 0
-156 65 -240 251 -327 59 -27 127 -59 151 -70 92 -44 150 -121 151 -200 0
-108 -81 -177 -210 -178 -92 0 -130 13 -212 75 -40 30 -80 55 -88 55 -27 0
-58 -29 -70 -65 -42 -128 220 -262 443 -227 218 34 328 170 315 391 -9 157
-75 240 -258 327 -277 132 -290 143 -290 240 0 97 70 148 206 148 69 0 92 -5
162 -34 l82 -34 28 21 c37 27 51 83 29 117 -10 14 -30 32 -47 41 -74 39 -268
56 -380 34z"/>
<path d="M330 2403 c-25 -32 -23 -60 16 -213 101 -385 369 -722 725 -909 718
-377 1606 -93 1969 629 68 135 139 364 140 451 0 34 -39 69 -77 69 -43 0 -68
-35 -82 -116 -66 -379 -340 -739 -696 -916 -409 -204 -911 -173 -1295 81 -288
189 -503 513 -560 843 -14 79 -37 108 -85 108 -25 0 -39 -7 -55 -27z"/>
<path d="M3800 3820 c-22 -22 -26 -60 -10 -91 6 -10 43 -35 83 -53 344 -163
597 -486 682 -868 9 -42 24 -83 33 -91 52 -47 122 -16 122 52 0 58 -43 216
-89 327 -127 305 -364 555 -668 708 -82 41 -124 45 -153 16z"/>
<path d="M3805 3485 c-14 -13 -25 -36 -25 -50 0 -31 22 -53 139 -137 144 -106
255 -263 312 -443 17 -55 40 -108 51 -117 27 -24 73 -23 99 3 36 36 16 132
-65 304 -77 163 -205 309 -364 416 -83 55 -112 60 -147 24z"/>
</g>
</svg>
