<?xml version="1.0" standalone="no"?>
<!DOCTYPE svg PUBLIC "-//W3C//DTD SVG 20010904//EN"
 "http://www.w3.org/TR/2001/REC-SVG-20010904/DTD/svg10.dtd">
<svg version="1.0" xmlns="http://www.w3.org/2000/svg"
 width="64.000000pt" height="64.000000pt" viewBox="0 0 64.000000 64.000000"
 preserveAspectRatio="xMidYMid meet">

<g transform="translate(0.000000,64.000000) scale(0.100000,-0.100000)"
fill="#000000" stroke="none">
<path fill="#5C5470" d="M264 620 c-100 -20 -185 -85 -232 -175 -21 -41 -26 -64 -26 -130 -1
-93 19 -148 79 -213 36 -41 130 -96 146 -86 5 3 9 18 9 35 0 27 -3 29 -35 29
-35 0 -42 5 -90 66 -44 57 -22 62 36 9 43 -39 60 -43 83 -19 22 22 20 44 -5
44 -30 0 -74 28 -93 60 -19 33 -21 121 -4 153 6 12 11 36 10 52 -1 17 2 37 7
45 9 12 14 12 45 -2 45 -22 203 -24 243 -3 15 8 33 15 40 15 13 0 28 -55 18
-70 -4 -6 1 -23 10 -37 28 -42 17 -135 -20 -173 -16 -16 -43 -32 -61 -36 l-32
-6 5 -76 c3 -43 9 -80 12 -85 12 -13 108 43 146 85 58 64 80 120 79 208 0 99
-28 163 -100 229 -74 68 -179 99 -270 81z"/>
</g>
</svg>
