<?xml version="1.0" standalone="no"?>
<!DOCTYPE svg PUBLIC "-//W3C//DTD SVG 20010904//EN"
 "http://www.w3.org/TR/2001/REC-SVG-20010904/DTD/svg10.dtd">
<svg version="1.0" xmlns="http://www.w3.org/2000/svg"
 width="64.000000pt" height="64.000000pt" viewBox="0 0 64.000000 64.000000"
 preserveAspectRatio="xMidYMid meet">

<g transform="translate(0.000000,64.000000) scale(0.100000,-0.100000)"
fill="#000000" stroke="none">
<path fill="#5C5470" d="M50 573 c-49 -19 -50 -23 -50 -253 0 -208 1 -218 21 -236 20 -18 40
-19 299 -19 259 0 279 1 299 19 20 18 21 28 21 236 0 208 -1 218 -21 236 -19
18 -41 19 -288 21 -146 1 -273 -1 -281 -4z m162 -129 l108 -66 108 66 c59 36
118 66 130 66 22 0 22 -1 22 -190 l0 -190 -35 0 -35 0 0 140 0 139 -95 -61
-95 -60 -95 60 -95 61 0 -139 0 -140 -35 0 -35 0 0 190 c0 189 0 190 22 190
12 0 71 -30 130 -66z"/>
</g>
</svg>
