<?xml version="1.0" standalone="no"?>
<!DOCTYPE svg PUBLIC "-//W3C//DTD SVG 20010904//EN"
 "http://www.w3.org/TR/2001/REC-SVG-20010904/DTD/svg10.dtd">
<svg version="1.0" xmlns="http://www.w3.org/2000/svg"
 width="64.000000pt" height="64.000000pt" viewBox="0 0 64.000000 64.000000"
 preserveAspectRatio="xMidYMid meet">

<g transform="translate(0.000000,64.000000) scale(0.100000,-0.100000)"
fill="#000000" stroke="none">
<path fill="#5C5470" d="M25 615 l-25 -24 0 -271 0 -271 25 -24 24 -25 271 0 271 0 24 25 25
24 0 271 0 271 -25 24 -24 25 -271 0 -271 0 -24 -25z m560 -295 l0 -265 -265
0 -265 0 -3 255 c-1 140 0 260 3 267 3 11 61 13 267 11 l263 -3 0 -265z"/>
<path fill="#5C5470" d="M122 518 c-27 -27 -3 -88 34 -88 16 0 54 35 54 51 0 6 -5 19 -10 30
-12 22 -59 26 -78 7z"/>
<path fill="#5C5470" d="M366 379 c-21 -17 -26 -18 -26 -5 0 12 -11 16 -45 16 l-46 0 3 -137
3 -138 43 -3 42 -3 0 86 c0 100 9 125 48 125 45 0 52 -16 52 -117 l0 -93 45 0
45 0 0 93 c0 118 -12 162 -50 182 -40 21 -83 19 -114 -6z"/>
<path fill="#5C5470" d="M110 250 l0 -140 45 0 45 0 0 140 0 140 -45 0 -45 0 0 -140z"/>
</g>
</svg>
