<?xml version="1.0" standalone="no"?>
<!DOCTYPE svg PUBLIC "-//W3C//DTD SVG 20010904//EN"
 "http://www.w3.org/TR/2001/REC-SVG-20010904/DTD/svg10.dtd">
<svg version="1.0" xmlns="http://www.w3.org/2000/svg"
 width="512.000000pt" height="512.000000pt" viewBox="0 0 512.000000 512.000000"
 preserveAspectRatio="xMidYMid meet">

<g transform="translate(0.000000,512.000000) scale(0.100000,-0.100000)"
fill="#C5BDD8" stroke="none">
<path d="M2341 5109 c-1012 -90 -1874 -766 -2201 -1726 -187 -545 -182 -1152
12 -1688 48 -134 176 -399 213 -443 79 -94 215 -86 273 16 40 71 32 112 -52
274 -117 225 -182 410 -227 652 -27 141 -37 473 -20 627 67 584 361 1122 811
1481 546 435 1228 590 1905 433 371 -87 728 -278 1003 -539 108 -103 138 -120
208 -114 92 8 154 76 154 170 0 59 -28 100 -135 198 -526 480 -1239 721 -1944
659z"/>
<path d="M4595 3921 c-78 -19 -130 -85 -129 -166 1 -42 13 -73 77 -195 171
-330 247 -644 247 -1023 -1 -303 -47 -549 -157 -822 -386 -962 -1391 -1528
-2418 -1360 -428 69 -834 270 -1150 567 -112 106 -141 122 -211 116 -92 -8
-154 -76 -154 -170 0 -60 28 -101 135 -199 391 -356 859 -572 1410 -651 119
-17 512 -16 635 1 482 66 925 254 1291 547 112 91 298 277 391 394 227 284
401 639 488 992 57 231 65 309 65 608 0 299 -8 377 -65 608 -54 221 -163 494
-263 660 -44 74 -120 110 -192 93z"/>
<path d="M2440 3234 c-134 -26 -266 -97 -365 -199 -81 -82 -126 -153 -163
-257 -23 -66 -26 -87 -26 -218 0 -139 1 -149 31 -228 76 -199 215 -339 413
-414 81 -31 91 -32 230 -32 132 0 152 2 218 26 107 39 177 83 262 168 85 85
129 155 168 262 24 66 26 86 26 218 0 139 -1 149 -32 230 -75 197 -217 340
-410 410 -77 29 -101 33 -207 35 -66 2 -131 1 -145 -1z m261 -366 c69 -32 135
-98 168 -168 22 -46 26 -69 26 -140 0 -102 -28 -173 -95 -240 -67 -67 -138
-95 -240 -95 -71 0 -94 4 -141 26 -280 131 -254 540 40 634 68 22 174 14 242
-17z"/>
</g>
</svg>
