<?xml version="1.0" standalone="no"?>
<!DOCTYPE svg PUBLIC "-//W3C//DTD SVG 20010904//EN"
 "http://www.w3.org/TR/2001/REC-SVG-20010904/DTD/svg10.dtd">
<svg version="1.0" xmlns="http://www.w3.org/2000/svg"
 width="128.000000pt" height="128.000000pt" viewBox="0 0 128.000000 128.000000"
 preserveAspectRatio="xMidYMid meet">

<g transform="translate(0.000000,128.000000) scale(0.100000,-0.100000)"
fill="#C5BDD8" stroke="none">
<path d="M565 1040 c-34 -22 -65 -74 -65 -108 0 -38 33 -23 41 18 24 116 199
98 199 -20 0 -55 -13 -76 -61 -100 -44 -23 -59 -51 -59 -113 l0 -42 -282 -155
c-155 -85 -294 -166 -310 -178 -34 -29 -37 -69 -8 -100 l21 -22 599 0 599 0
21 22 c29 31 26 71 -8 100 -15 13 -155 93 -310 178 l-282 155 0 51 c0 51 1 53
44 78 70 41 93 112 59 183 -33 69 -133 96 -198 53z m381 -562 c274 -150 294
-163 294 -189 0 -15 -7 -29 -16 -33 -20 -8 -1148 -8 -1168 0 -9 4 -16 18 -16
33 0 25 21 39 293 189 160 88 298 161 306 162 7 0 145 -73 307 -162z"/>
<path d="M453 457 c-162 -90 -212 -127 -170 -127 6 0 93 45 192 99 161 88 202
119 170 127 -5 1 -92 -43 -192 -99z"/>
</g>
</svg>
