<?xml version="1.0" standalone="no"?>
<!DOCTYPE svg PUBLIC "-//W3C//DTD SVG 20010904//EN"
 "http://www.w3.org/TR/2001/REC-SVG-20010904/DTD/svg10.dtd">
<svg version="1.0" xmlns="http://www.w3.org/2000/svg"
 width="374.000000pt" height="374.000000pt" viewBox="0 0 374.000000 374.000000"
 preserveAspectRatio="xMidYMid meet">

<g transform="translate(0.000000,374.000000) scale(0.100000,-0.100000)"
fill="#C5BDD8" stroke="none">
<path d="M203 3365 c-27 -16 -49 -40 -62 -68 -20 -42 -21 -58 -21 -480 0 -424
1 -438 20 -457 25 -25 62 -26 83 -2 15 16 17 48 17 235 l0 217 1630 0 1630 0
0 -803 c0 -768 -1 -805 -18 -821 -17 -15 -71 -16 -612 -14 l-593 3 -13 61
c-16 78 -45 135 -99 193 l-43 46 -4 95 c-3 82 -8 103 -31 143 -84 142 -279
169 -396 55 -55 -54 -74 -103 -79 -203 -4 -88 -5 -91 -44 -133 -48 -53 -94
-147 -103 -213 l-7 -49 -593 0 -594 0 -15 22 c-14 20 -16 82 -16 484 0 434 -1
462 -18 477 -26 24 -68 21 -86 -5 -14 -20 -16 -82 -16 -483 0 -271 4 -475 10
-495 11 -41 61 -94 103 -109 19 -7 229 -11 626 -11 l599 0 4 -122 c4 -113 7
-129 35 -188 58 -120 174 -207 306 -230 175 -31 352 63 430 227 29 62 32 79
37 188 l5 120 615 5 c441 4 621 8 635 17 36 20 75 69 85 104 6 21 10 420 10
1060 l0 1026 -23 43 c-16 30 -37 51 -67 67 l-43 23 -1621 0 -1621 0 -42 -25z
m3281 -114 c14 -16 16 -39 14 -167 l-3 -149 -1625 0 -1625 0 -3 149 c-2 128 0
151 14 167 17 18 70 19 1614 19 1544 0 1597 -1 1614 -19z m-1555 -1549 c42
-23 71 -74 71 -125 0 -36 -2 -38 -22 -30 -29 10 -184 11 -220 0 -26 -7 -28 -6
-28 25 0 73 68 148 134 148 17 0 47 -8 65 -18z m34 -278 c61 -21 129 -82 161
-146 25 -50 26 -58 26 -242 0 -179 -2 -194 -24 -241 -88 -189 -333 -227 -471
-73 -68 75 -77 120 -73 336 3 159 5 181 25 218 36 67 70 101 135 133 71 36
145 41 221 15z"/>
<path d="M2981 3141 c-28 -28 -26 -57 4 -77 23 -15 27 -15 50 0 39 26 32 76
-12 90 -15 5 -28 1 -42 -13z"/>
<path d="M3208 3149 c-22 -12 -24 -62 -4 -78 46 -38 111 25 71 69 -20 22 -41
25 -67 9z"/>
<path d="M2751 3136 c-21 -26 -10 -69 22 -80 23 -8 31 -6 49 12 18 18 20 26
12 49 -7 21 -17 29 -40 31 -18 2 -36 -3 -43 -12z"/>
<path d="M542 2604 c-14 -10 -22 -26 -22 -44 0 -64 -90 -60 1367 -60 l1323 0
21 21 c24 24 20 65 -8 87 -13 9 -296 12 -1338 12 -1179 0 -1323 -2 -1343 -16z"/>
<path d="M1427 2152 c-40 -44 -14 -85 71 -113 68 -22 69 -23 103 -86 37 -71
64 -89 104 -71 43 20 43 53 -1 136 -21 40 -46 80 -55 88 -19 17 -154 64 -184
64 -12 0 -29 -8 -38 -18z"/>
<path d="M2185 2154 c-124 -44 -117 -38 -164 -127 -50 -94 -51 -130 -4 -148
36 -14 68 11 107 83 29 53 34 56 98 77 67 22 88 40 88 79 0 26 -31 52 -61 51
-13 0 -42 -7 -64 -15z"/>
<path d="M967 1652 c-10 -10 -17 -27 -17 -38 1 -49 38 -64 158 -64 l100 0 82
-95 c66 -77 87 -95 109 -95 34 0 61 28 61 61 0 22 -34 66 -161 207 l-38 42
-139 0 c-122 0 -141 -2 -155 -18z"/>
<path d="M2380 1559 c-54 -63 -96 -121 -98 -135 -5 -34 24 -64 59 -64 23 0 43
17 110 95 l81 95 109 0 c96 0 111 2 129 20 24 24 25 48 4 78 -14 21 -22 22
-157 22 l-142 0 -95 -111z"/>
<path d="M1190 819 c-69 -27 -130 -55 -136 -62 -24 -24 -114 -198 -114 -218 0
-39 19 -59 54 -59 40 0 48 9 101 109 40 75 42 76 110 104 172 70 175 72 175
111 0 34 -28 67 -55 65 -5 0 -66 -23 -135 -50z"/>
<path d="M2380 852 c-24 -19 -30 -66 -12 -84 6 -6 62 -32 124 -57 l112 -46 41
-76 c53 -100 61 -109 101 -109 35 0 54 20 54 58 0 19 -92 197 -113 219 -12 12
-257 113 -275 113 -5 0 -20 -8 -32 -18z"/>
</g>
</svg>
