<?xml version="1.0" standalone="no"?>
<!DOCTYPE svg PUBLIC "-//W3C//DTD SVG 20010904//EN"
 "http://www.w3.org/TR/2001/REC-SVG-20010904/DTD/svg10.dtd">
<svg version="1.0" xmlns="http://www.w3.org/2000/svg"
 width="128.000000pt" height="128.000000pt" viewBox="0 0 128.000000 128.000000"
 preserveAspectRatio="xMidYMid meet">

<g transform="translate(0.000000,128.000000) scale(0.100000,-0.100000)"
fill="#C5BDD8" stroke="none">
<path d="M500 1264 c-111 -23 -224 -86 -311 -173 -251 -252 -252 -651 0 -901
254 -253 648 -253 902 0 190 189 242 476 130 717 -30 63 -53 85 -72 66 -7 -7
-2 -28 16 -63 36 -72 65 -190 65 -270 0 -138 -58 -289 -149 -391 l-48 -53 -17
52 c-19 57 -73 134 -123 176 -17 14 -58 39 -90 54 -52 24 -69 27 -163 27 -94
0 -111 -3 -163 -27 -32 -15 -73 -40 -90 -54 -50 -42 -104 -119 -123 -176 l-17
-52 -48 53 c-206 230 -195 587 25 807 199 198 512 230 743 74 46 -31 73 -33
73 -6 0 36 -152 117 -266 141 -85 18 -188 18 -274 -1z m295 -836 c93 -48 177
-157 187 -243 3 -28 -1 -32 -72 -68 -179 -90 -397 -85 -567 13 l-51 29 10 43
c24 109 122 211 238 249 14 5 66 7 115 6 74 -3 99 -8 140 -29z"/>
<path d="M1080 1050 c0 -13 7 -20 20 -20 13 0 20 7 20 20 0 13 -7 20 -20 20
-13 0 -20 -7 -20 -20z"/>
<path d="M545 993 c-82 -43 -125 -113 -125 -203 0 -130 90 -220 220 -220 130
0 220 90 220 220 0 90 -42 160 -122 201 -47 24 -150 25 -193 2z m186 -56 c55
-37 79 -81 79 -147 0 -66 -24 -110 -79 -147 -47 -32 -135 -32 -182 0 -55 37
-79 81 -79 147 0 66 24 110 79 147 47 32 135 32 182 0z"/>
</g>
</svg>
