<svg xmlns="http://www.w3.org/2000/svg" xmlns:xlink="http://www.w3.org/1999/xlink" viewBox="0,0,256,256" width="100px" height="100px"><g transform="translate(-29.44,-29.44) scale(1.23,1.23)"><g fill-opacity="0" fill="#dddddd" fill-rule="nonzero" stroke="none" stroke-width="1" stroke-linecap="butt" stroke-linejoin="miter" stroke-miterlimit="10" stroke-dasharray="" stroke-dashoffset="0" font-family="none" font-weight="none" font-size="none" text-anchor="none" style="mix-blend-mode: normal"><path d="M23.93496,232.06504v-208.13008h208.13008v208.13008z" id="bgRectangle"></path></g><g fill="#c5bdd8" fill-rule="nonzero" stroke="none" stroke-width="1" stroke-linecap="butt" stroke-linejoin="miter" stroke-miterlimit="10" stroke-dasharray="" stroke-dashoffset="0" font-family="none" font-weight="none" font-size="none" text-anchor="none" style="mix-blend-mode: normal"><g transform="scale(5.12,5.12)"><path d="M27,4.20508l-0.5,0.28906l-20,11.55078l-0.5,0.28711v0.57813v18.48047v0.57617l0.5,0.28906l16,9.24023l0.5,0.28906l0.5,-0.28906l20,-11.55078l0.5,-0.28906v-0.57617v-18.48047v-0.57617l-0.5,-0.28906l-16,-9.24023zM27,5.64844l5.50781,3.18164l-19.50195,11.25781l-5.50586,-3.17773zM33.00781,9.11914l3.5,2.01953l-19.50195,11.25977l-3.5,-2.02148zM37.00781,11.42773l5.49219,3.17188l-19.5,11.25977l-5.49414,-3.17187zM42.75,15.0332v17.90234l-19.5,11.26172v-17.9043zM7.25,17.34375l5.5,3.17578v4.04883l-0.625,-0.36133c-0.04371,-0.02543 -0.0941,-0.03701 -0.14453,-0.0332c-0.13039,0.01023 -0.23086,0.11921 -0.23047,0.25v2.30859c-0.0001,0.08942 0.04756,0.17208 0.125,0.2168l6,3.46289c0.0774,0.04467 0.17275,0.04463 0.25011,-0.00009c0.07736,-0.04473 0.12498,-0.12734 0.12489,-0.2167v-2.30859c0.0001,-0.08942 -0.04756,-0.17208 -0.125,-0.2168l-0.875,-0.50586v-4.04687l5.5,3.17578v17.9043l-15.5,-8.95117zM13.25,20.80859l3.5,2.01953v4.04883l-3.5,-2.02148zM12.25,24.85547l1.25,0.72266l-1.25,0.7207zM14,25.86523l3.75,2.16602v1.73047l-5.25,-3.0293z"></path></g></g></g></svg>