<?xml version="1.0" standalone="no"?>
<!DOCTYPE svg PUBLIC "-//W3C//DTD SVG 20010904//EN"
 "http://www.w3.org/TR/2001/REC-SVG-20010904/DTD/svg10.dtd">
<svg version="1.0" xmlns="http://www.w3.org/2000/svg"
 width="64.000000pt" height="64.000000pt" viewBox="0 0 64.000000 64.000000"
 preserveAspectRatio="xMidYMid meet">

<g transform="translate(0.000000,64.000000) scale(0.100000,-0.100000)"
fill="#C5BDD8" stroke="none">
<path d="M10 581 c-5 -11 -10 -70 -10 -130 0 -99 2 -113 20 -128 14 -12 20
-30 20 -60 0 -23 4 -44 9 -47 11 -7 106 103 96 112 -3 4 -24 -13 -46 -38 l-38
-45 -1 37 c0 27 -6 40 -20 48 -19 10 -20 19 -18 128 l3 117 180 0 180 0 3 -32
c4 -41 22 -44 22 -4 0 57 -13 61 -210 61 -167 0 -180 -1 -190 -19z"/>
<path d="M186 458 c-12 -17 -16 -50 -16 -145 0 -167 -4 -163 178 -164 l137 0
43 -55 c24 -30 49 -53 55 -51 7 2 13 26 15 54 2 35 9 56 22 68 18 16 20 32 20
151 0 107 -3 136 -16 148 -13 14 -47 16 -219 16 -199 0 -204 0 -219 -22z m432
-123 c3 -133 -1 -165 -23 -165 -11 0 -15 -13 -15 -52 l-1 -53 -47 53 -47 52
-136 0 c-92 0 -139 4 -147 12 -17 17 -17 249 0 266 9 9 65 12 213 10 l200 -3
3 -120z"/>
<path d="M250 390 c0 -6 58 -10 155 -10 97 0 155 4 155 10 0 6 -58 10 -155 10
-97 0 -155 -4 -155 -10z"/>
<path d="M250 320 c0 -6 58 -10 155 -10 97 0 155 4 155 10 0 6 -58 10 -155 10
-97 0 -155 -4 -155 -10z"/>
<path d="M250 250 c0 -6 58 -10 155 -10 97 0 155 4 155 10 0 6 -58 10 -155 10
-97 0 -155 -4 -155 -10z"/>
</g>
</svg>
