<?xml version="1.0" standalone="no"?>
<!DOCTYPE svg PUBLIC "-//W3C//DTD SVG 20010904//EN"
 "http://www.w3.org/TR/2001/REC-SVG-20010904/DTD/svg10.dtd">
<svg version="1.0" xmlns="http://www.w3.org/2000/svg"
 width="128.000000pt" height="128.000000pt" viewBox="0 0 128.000000 128.000000"
 preserveAspectRatio="xMidYMid meet">

<g transform="translate(0.000000,128.000000) scale(0.100000,-0.100000)"
fill="#C5BDD8" stroke="none">
<path d="M383 1265 c-134 -41 -237 -161 -250 -290 -5 -45 -10 -54 -40 -75 -80
-55 -114 -176 -74 -266 40 -91 103 -133 208 -142 l63 -5 0 -223 c0 -211 1
-225 20 -244 19 -19 33 -20 330 -20 297 0 311 1 330 20 19 19 20 33 20 244 l0
223 63 5 c105 9 168 51 208 142 43 98 5 215 -91 277 -28 18 -50 40 -50 49 0
32 -52 119 -92 156 -22 20 -65 47 -95 61 -45 21 -66 24 -136 22 -74 -3 -86 0
-130 25 -93 55 -194 70 -284 41z m224 -55 c28 -12 59 -30 68 -40 15 -16 28
-18 103 -13 76 5 94 3 139 -17 75 -32 138 -103 159 -179 13 -44 23 -62 38 -67
39 -12 88 -57 107 -98 58 -127 -37 -265 -183 -266 l-48 0 0 118 c0 155 -4 162
-104 162 -70 0 -74 1 -80 25 -5 21 -12 25 -46 25 -28 0 -46 7 -64 25 -33 33
-79 33 -112 0 -18 -18 -36 -25 -64 -25 -34 0 -41 -4 -46 -25 -6 -24 -10 -25
-80 -25 -100 0 -104 -7 -104 -162 l0 -118 -47 0 c-195 1 -274 232 -119 342 40
28 46 36 46 69 0 125 106 256 235 290 49 13 146 3 202 -21z m69 -365 c13 -20
25 -25 56 -25 37 0 39 -2 36 -27 l-3 -28 -125 0 -125 0 -3 28 c-3 25 -1 27 36
27 31 0 43 5 56 25 9 14 25 25 36 25 11 0 27 -11 36 -25z m-202 -100 l6 -25
160 0 160 0 6 25 c6 25 9 26 73 23 l66 -3 0 -360 0 -360 -305 0 -305 0 -3 350
c-1 192 0 356 3 362 3 9 26 13 69 13 60 0 64 -2 70 -25z"/>
<path d="M385 1133 c-71 -37 -121 -108 -127 -178 -2 -29 1 -40 13 -43 11 -2
19 11 27 49 7 28 21 64 33 80 22 32 86 69 118 69 30 0 51 11 51 26 0 19 -76
18 -115 -3z"/>
<path d="M425 629 c-16 -25 19 -29 221 -27 178 3 209 5 209 18 0 13 -31 15
-212 18 -147 2 -214 -1 -218 -9z"/>
<path d="M425 509 c-16 -25 19 -29 221 -27 178 3 209 5 209 18 0 13 -31 15
-212 18 -147 2 -214 -1 -218 -9z"/>
<path d="M431 401 c-7 -5 -10 -14 -7 -20 5 -7 74 -11 216 -11 142 0 211 4 216
11 3 6 0 15 -7 20 -18 11 -400 11 -418 0z"/>
<path d="M425 279 c-16 -25 19 -29 221 -27 178 3 209 5 209 18 0 13 -31 15
-212 18 -147 2 -214 -1 -218 -9z"/>
<path d="M425 159 c-16 -25 19 -29 221 -27 178 3 209 5 209 18 0 13 -31 15
-212 18 -147 2 -214 -1 -218 -9z"/>
</g>
</svg>
