<?xml version="1.0" standalone="no"?>
<!DOCTYPE svg PUBLIC "-//W3C//DTD SVG 20010904//EN"
 "http://www.w3.org/TR/2001/REC-SVG-20010904/DTD/svg10.dtd">
<svg version="1.0" xmlns="http://www.w3.org/2000/svg"
 width="64.000000pt" height="64.000000pt" viewBox="0 0 64.000000 64.000000"
 preserveAspectRatio="xMidYMid meet">

<g transform="translate(0.000000,64.000000) scale(0.100000,-0.100000)"
fill="#C5BDD8" stroke="none">
<path d="M314 595 c-5 -12 -25 -15 -94 -15 -49 0 -92 5 -95 10 -12 20 -54 10
-72 -16 -16 -25 -16 -28 0 -56 16 -28 16 -41 1 -211 -10 -114 -22 -189 -30
-202 -18 -25 -18 -40 2 -59 19 -20 52 -21 73 -2 9 8 75 29 146 48 107 27 135
31 154 22 12 -7 32 -9 42 -7 25 7 53 48 46 67 -6 15 89 149 123 173 11 8 20
20 20 27 0 16 -32 46 -49 46 -17 0 -173 138 -189 167 -15 27 -69 33 -78 8z
m50 -1 c9 -3 16 -16 16 -29 0 -25 -21 -38 -45 -29 -18 7 -20 50 -2 57 6 3 13
6 14 6 1 1 8 -2 17 -5z m-231 -36 c7 -20 -12 -48 -31 -48 -39 0 -57 51 -25 69
19 10 48 -1 56 -21z m174 -14 c3 -8 16 -19 28 -24 19 -7 24 -18 26 -59 2 -28
0 -51 -4 -51 -7 0 -102 70 -187 137 -12 10 -1 12 58 13 57 0 74 -3 79 -16z
m185 -77 c83 -72 82 -87 -8 -87 -49 0 -68 4 -83 19 -24 24 -36 103 -19 130 14
23 9 26 110 -62z m-234 -7 c51 -39 82 -70 80 -79 -2 -10 -22 -20 -53 -26 -71
-15 -96 -1 -129 77 -23 53 -25 66 -15 85 8 14 16 20 23 14 6 -4 48 -36 94 -71z
m-115 -37 c17 -43 26 -83 24 -108 -4 -53 -75 -185 -100 -185 -13 0 -17 5 -13
18 2 9 10 90 17 180 11 140 14 162 29 162 11 0 25 -21 43 -67z m246 -37 c9
-10 8 -16 -4 -26 -19 -16 -41 1 -32 24 8 20 21 20 36 2z m219 -9 c4 -20 -25
-34 -40 -19 -15 15 -1 44 19 40 10 -2 19 -11 21 -21z m-51 -26 c10 -16 5 -28
-34 -80 -25 -34 -47 -61 -50 -61 -33 0 -81 98 -68 140 6 17 15 20 73 20 55 0
69 -3 79 -19z m-200 -7 c14 -4 27 -20 36 -48 8 -22 18 -49 22 -58 13 -32 -30
-21 -110 28 -42 26 -73 50 -68 54 8 8 67 27 88 29 6 0 20 -2 32 -5z m-139 -21
c-2 -10 -10 -18 -18 -18 -8 0 -16 8 -18 18 -2 12 3 17 18 17 15 0 20 -5 18
-17z m154 -148 c-2 -17 -5 -31 -7 -33 -4 -5 -227 -62 -241 -62 -8 0 -16 10
-19 23 -8 28 77 184 103 189 9 2 51 -17 92 -42 69 -42 75 -48 72 -75z m86 23
c27 -27 7 -78 -29 -78 -21 0 -49 26 -49 45 0 35 53 58 78 33z m-367 -104 c9
-11 10 -20 2 -32 -13 -22 -43 -22 -56 -1 -24 38 25 68 54 33z"/>
<path d="M90 390 c0 -5 5 -10 10 -10 6 0 10 5 10 10 0 6 -4 10 -10 10 -5 0
-10 -4 -10 -10z"/>
<path d="M88 325 c-11 -58 -10 -81 3 -68 5 5 9 32 7 59 l-3 49 -7 -40z"/>
</g>
</svg>
