<?xml version="1.0" standalone="no"?>
<!DOCTYPE svg PUBLIC "-//W3C//DTD SVG 20010904//EN"
 "http://www.w3.org/TR/2001/REC-SVG-20010904/DTD/svg10.dtd">
<svg version="1.0" xmlns="http://www.w3.org/2000/svg"
 width="128.000000pt" height="128.000000pt" viewBox="0 0 128.000000 128.000000"
 preserveAspectRatio="xMidYMid meet">

<g transform="translate(0.000000,128.000000) scale(0.100000,-0.100000)"
fill="#C5BDD8" stroke="none">
<path d="M600 1220 c-11 -11 -20 -29 -20 -40 0 -11 9 -29 20 -40 18 -18 20
-33 20 -180 0 -153 -1 -160 -20 -160 -19 0 -20 7 -20 96 0 96 0 96 -34 130
-33 33 -36 34 -120 34 -73 0 -89 3 -106 20 -11 11 -29 20 -40 20 -26 0 -60
-34 -60 -60 0 -26 34 -60 60 -60 11 0 29 9 40 20 17 17 33 20 103 20 112 0
117 -6 117 -128 l0 -92 -250 0 c-311 0 -290 12 -290 -160 0 -173 -24 -160 310
-160 l271 0 -3 -157 -3 -158 -165 -5 c-138 -4 -165 -7 -165 -20 0 -12 22 -15
128 -18 118 -2 127 -4 127 -22 0 -18 -9 -20 -127 -22 -106 -3 -128 -6 -128
-18 0 -13 51 -15 395 -15 344 0 395 2 395 15 0 12 -22 15 -127 18 -119 2 -128
4 -128 22 0 18 9 20 128 22 105 3 127 6 127 18 0 13 -27 16 -165 20 l-165 5
-3 156 c-2 152 -2 157 19 162 12 3 19 12 17 19 -4 10 -51 14 -211 16 l-207 2
0 120 0 120 460 0 460 0 0 -120 0 -120 -227 -2 c-195 -3 -228 -5 -228 -18 0
-13 33 -15 227 -18 286 -3 268 -13 268 158 0 172 21 160 -290 160 l-250 0 0
93 c0 121 5 127 118 127 69 0 85 -3 102 -20 11 -11 29 -20 40 -20 26 0 60 34
60 60 0 26 -34 60 -60 60 -11 0 -29 -9 -40 -20 -17 -17 -33 -20 -106 -20 -84
0 -87 -1 -120 -34 -34 -34 -34 -34 -34 -130 0 -89 -1 -96 -20 -96 -19 0 -20 7
-20 160 0 147 2 162 20 180 11 11 20 29 20 40 0 11 -9 29 -20 40 -11 11 -29
20 -40 20 -11 0 -29 -9 -40 -20z m58 -37 c-2 -10 -10 -18 -18 -18 -8 0 -16 8
-18 18 -2 12 3 17 18 17 15 0 20 -5 18 -17z m-363 -143 c0 -22 -29 -18 -33 3
-3 14 1 18 15 15 10 -2 18 -10 18 -18z m725 6 c0 -20 -19 -31 -32 -18 -6 6 -7
15 -4 21 10 16 36 13 36 -3z m-740 -406 l0 -120 -120 0 -120 0 0 120 0 120
120 0 120 0 0 -120z m380 -280 c0 -113 -1 -120 -20 -120 -19 0 -20 7 -20 120
0 113 1 120 20 120 19 0 20 -7 20 -120z m5 -192 c8 -25 18 -35 43 -43 21 -6
32 -15 32 -27 0 -16 -11 -18 -100 -18 -89 0 -100 2 -100 18 0 12 11 21 33 27
24 8 34 18 42 43 5 18 16 32 25 32 9 0 20 -14 25 -32z"/>
<path d="M120 680 c-11 -11 -20 -29 -20 -40 0 -26 34 -60 60 -60 26 0 60 34
60 60 0 11 -9 29 -20 40 -11 11 -29 20 -40 20 -11 0 -29 -9 -40 -20z m55 -40
c0 -8 -8 -16 -17 -18 -13 -2 -18 3 -18 18 0 15 5 20 18 18 9 -2 17 -10 17 -18z"/>
<path d="M385 689 c-4 -6 -3 -15 2 -20 5 -5 142 -8 329 -7 276 3 319 5 319 18
0 13 -44 15 -322 18 -226 1 -324 -1 -328 -9z"/>
<path d="M1085 690 c-12 -19 10 -32 51 -28 27 2 39 8 39 18 0 19 -79 27 -90
10z"/>
<path d="M385 609 c-4 -6 -3 -15 2 -20 5 -5 142 -8 329 -7 276 3 319 5 319 18
0 13 -44 15 -322 18 -226 1 -324 -1 -328 -9z"/>
<path d="M1085 610 c-12 -19 10 -32 51 -28 27 2 39 8 39 18 0 19 -79 27 -90
10z"/>
</g>
</svg>
