<?xml version="1.0" standalone="no"?>
<!DOCTYPE svg PUBLIC "-//W3C//DTD SVG 20010904//EN"
 "http://www.w3.org/TR/2001/REC-SVG-20010904/DTD/svg10.dtd">
<svg version="1.0" xmlns="http://www.w3.org/2000/svg"
 width="64.000000pt" height="64.000000pt" viewBox="0 0 64.000000 64.000000"
 preserveAspectRatio="xMidYMid meet">

<g transform="translate(0.000000,64.000000) scale(0.100000,-0.100000)"
fill="#C5BDD8" stroke="none">
<path d="M290 630 c0 -5 20 -10 45 -10 38 0 45 -3 45 -20 0 -24 15 -27 24 -5
5 14 11 13 48 -6 56 -27 104 -74 131 -124 15 -29 22 -35 25 -23 5 25 -52 103
-101 136 -23 16 -64 37 -90 46 -53 18 -127 21 -127 6z"/>
<path d="M160 594 c-57 -33 -71 -44 -65 -54 3 -5 27 6 54 23 26 18 57 37 67
44 39 24 -11 13 -56 -13z"/>
<path d="M213 539 c-24 -12 -43 -25 -43 -30 0 -13 6 -11 50 11 22 11 51 20 65
20 20 0 25 -5 25 -25 0 -21 -6 -27 -32 -32 -38 -7 -118 -84 -118 -112 0 -11
-7 -27 -16 -35 -14 -15 -14 -17 0 -32 9 -8 16 -24 16 -35 0 -11 20 -39 44 -63
53 -54 109 -67 171 -42 35 15 40 15 57 0 25 -24 23 -29 -22 -49 -48 -22 -137
-22 -178 -1 -19 10 -33 12 -37 6 -7 -11 58 -40 91 -40 15 0 24 -6 24 -15 0 -8
5 -15 10 -15 6 0 10 7 10 15 0 9 9 15 23 15 35 0 121 44 148 77 14 17 31 44
38 61 12 28 15 30 42 20 28 -10 28 -10 13 -41 -9 -18 -27 -46 -40 -64 -13 -17
-20 -34 -15 -38 13 -8 65 70 85 128 17 50 20 103 10 156 -12 57 -21 32 -16
-43 5 -77 -1 -89 -36 -79 -19 5 -22 12 -22 64 0 59 -31 149 -51 149 -13 0 -11
-6 12 -52 40 -78 21 -197 -39 -251 -19 -17 -20 -17 -35 7 -15 22 -15 25 3 41
29 26 52 115 30 115 -5 0 -10 -10 -10 -21 0 -62 -83 -139 -150 -139 -73 0
-150 77 -150 150 0 73 77 150 149 150 42 0 90 -25 123 -63 15 -18 28 -27 28
-20 0 25 -62 83 -101 93 -32 9 -39 15 -39 35 0 21 5 25 28 25 15 0 47 -12 71
-25 42 -25 60 -27 47 -7 -3 5 -26 19 -51 31 -61 29 -155 29 -212 0z"/>
<path d="M52 493 c-35 -50 -55 -128 -50 -196 13 -159 133 -279 293 -294 65 -6
149 13 189 43 34 24 10 26 -36 2 -61 -33 -194 -33 -255 0 -91 48 -155 132
-169 220 -7 42 -6 42 25 42 26 0 31 -4 31 -24 0 -51 69 -164 92 -150 5 4 -1
18 -15 33 -62 66 -78 170 -38 249 23 46 25 52 12 52 -13 0 -51 -86 -51 -115 0
-21 -5 -25 -31 -25 -31 0 -31 0 -25 41 4 22 18 63 32 91 29 56 26 74 -4 31z"/>
<path d="M256 384 c-26 -27 -38 -94 -16 -94 6 0 10 14 10 30 0 17 9 39 20 50
11 11 33 20 50 20 62 0 93 -77 49 -121 -17 -17 -29 -20 -61 -16 -27 4 -38 2
-35 -6 2 -7 21 -13 43 -15 33 -2 45 2 67 24 58 58 18 154 -63 154 -27 0 -45
-7 -64 -26z"/>
</g>
</svg>
