<?xml version="1.0" standalone="no"?>
<!DOCTYPE svg PUBLIC "-//W3C//DTD SVG 20010904//EN"
 "http://www.w3.org/TR/2001/REC-SVG-20010904/DTD/svg10.dtd">
<svg version="1.0" xmlns="http://www.w3.org/2000/svg"
 width="32.000000pt" height="32.000000pt" viewBox="0 0 32.000000 32.000000"
 preserveAspectRatio="xMidYMid meet">

<g transform="translate(0.000000,32.000000) scale(0.100000,-0.100000)"
fill="#C5BDD8" stroke="none">
<path d="M134 298 c-4 -12 -17 -31 -30 -41 -19 -14 -24 -28 -24 -61 0 -23 -9
-59 -20 -81 -31 -60 -27 -75 18 -75 26 0 41 -6 50 -20 16 -26 48 -26 64 0 9
14 24 20 50 20 45 0 49 15 18 75 -11 22 -20 58 -20 81 0 33 -5 47 -24 61 -13
10 -26 29 -30 41 -4 12 -16 22 -26 22 -10 0 -22 -10 -26 -22z m63 -46 c17 -11
33 -58 33 -100 0 -20 7 -46 15 -56 8 -11 15 -23 15 -28 0 -4 -45 -8 -100 -8
-106 0 -115 5 -85 44 8 11 15 34 15 52 0 38 16 85 33 96 15 10 59 10 74 0z
m-25 -224 c-9 -9 -15 -9 -24 0 -9 9 -7 12 12 12 19 0 21 -3 12 -12z"/>
<path d="M84 292 c-33 -23 -60 -102 -34 -102 6 0 10 11 10 24 0 14 12 38 26
55 24 29 23 41 -2 23z"/>
<path d="M234 269 c14 -17 26 -41 26 -55 0 -13 5 -24 10 -24 26 0 -1 79 -34
102 -25 18 -26 6 -2 -23z"/>
</g>
</svg>
