<?xml version="1.0" standalone="no"?>
<!DOCTYPE svg PUBLIC "-//W3C//DTD SVG 20010904//EN"
 "http://www.w3.org/TR/2001/REC-SVG-20010904/DTD/svg10.dtd">
<svg version="1.0" xmlns="http://www.w3.org/2000/svg"
 width="512.000000pt" height="512.000000pt" viewBox="0 0 512.000000 512.000000"
 preserveAspectRatio="xMidYMid meet">

<g transform="translate(0.000000,512.000000) scale(0.100000,-0.100000)"
fill="#C5BDD8" stroke="none">
<path d="M1295 5100 c-61 -24 -126 -85 -156 -148 -18 -38 -23 -71 -27 -169
l-5 -123 -254 0 c-206 0 -261 -3 -291 -15 -47 -20 -78 -50 -105 -100 -20 -36
-22 -55 -22 -196 l0 -156 30 -48 c22 -36 45 -57 84 -77 l53 -28 254 0 254 0 0
-135 0 -135 -242 0 c-142 0 -259 -5 -282 -11 -58 -16 -123 -81 -141 -142 -18
-61 -20 -248 -3 -315 16 -64 86 -134 150 -150 29 -8 135 -12 282 -12 l236 0 0
-135 0 -134 -268 -3 -269 -3 -41 -27 c-22 -15 -54 -49 -69 -75 -27 -47 -28
-51 -28 -203 0 -152 1 -156 28 -203 15 -26 47 -60 69 -75 l41 -27 269 -3 268
-3 0 -134 0 -135 -236 0 c-147 0 -253 -4 -282 -12 -64 -16 -134 -86 -150 -150
-17 -67 -15 -254 3 -315 18 -61 83 -126 141 -142 23 -6 140 -11 282 -11 l242
0 0 -135 0 -135 -254 0 -254 0 -53 -28 c-39 -20 -62 -41 -84 -77 l-30 -48 0
-156 c0 -141 2 -160 22 -196 27 -50 58 -80 105 -100 30 -12 85 -15 291 -15
l254 0 5 -122 c4 -99 9 -132 27 -170 31 -64 95 -124 158 -148 53 -20 79 -20
1263 -20 1190 0 1210 0 1262 20 131 50 188 155 188 347 l0 92 269 3 269 3 44
30 c23 17 54 51 68 75 24 43 25 53 25 201 l0 156 -30 48 c-22 36 -45 57 -84
77 l-53 28 -254 0 -254 0 0 135 0 135 243 0 c144 0 258 5 282 11 56 15 128 92
143 152 15 59 15 245 0 305 -16 64 -86 134 -150 150 -29 8 -135 12 -282 12
l-236 0 0 135 0 134 268 3 269 3 41 27 c22 15 54 49 69 75 27 47 28 51 28 203
0 152 -1 156 -28 203 -15 26 -47 60 -69 75 l-41 27 -269 3 -268 3 0 134 0 135
236 0 c147 0 253 4 282 12 64 16 134 86 150 150 17 67 15 254 -3 315 -18 61
-83 126 -141 142 -23 6 -140 11 -281 11 l-243 0 0 135 0 135 254 0 254 0 53
28 c39 20 62 41 84 77 l30 48 0 156 c0 141 -2 160 -22 196 -27 50 -58 80 -105
100 -30 12 -85 15 -293 15 l-255 0 0 93 c0 192 -57 296 -188 347 -52 20 -71
20 -1265 19 -1175 0 -1214 -1 -1262 -19z m2503 -150 c67 -41 62 142 62 -2390
0 -2532 5 -2349 -62 -2390 -33 -20 -47 -20 -1238 -20 -1191 0 -1205 0 -1238
20 -67 41 -62 -142 -62 2390 0 2532 -5 2349 62 2390 33 20 47 20 1238 20 1191
0 1205 0 1238 -20z m-2688 -600 l0 -171 -246 3 c-304 4 -284 -9 -284 173 0
174 -17 165 291 165 l239 0 0 -170z m3404 149 c26 -20 26 -22 26 -144 0 -182
20 -169 -284 -173 l-246 -3 0 171 0 170 239 0 c226 0 240 -1 265 -21z m-3404
-1044 l0 -165 -245 0 c-306 0 -285 -12 -285 165 0 177 -21 165 285 165 l245 0
0 -165z m3410 145 c18 -18 20 -33 20 -145 0 -177 21 -165 -285 -165 l-245 0 0
165 0 165 245 0 c232 0 246 -1 265 -20z m-3410 -1040 l0 -170 -239 0 c-309 0
-291 -10 -291 170 0 180 -18 170 291 170 l239 0 0 -170z m3404 149 c26 -20 26
-22 26 -145 0 -119 -1 -126 -25 -149 l-24 -25 -241 0 -240 0 0 170 0 170 239
0 c226 0 240 -1 265 -21z m-3404 -1044 l0 -165 -245 0 c-306 0 -285 -12 -285
165 0 177 -21 165 285 165 l245 0 0 -165z m3410 145 c18 -18 20 -33 20 -145 0
-177 21 -165 -285 -165 l-245 0 0 165 0 165 245 0 c232 0 246 -1 265 -20z
m-3410 -1040 l0 -170 -239 0 c-307 0 -291 -9 -291 161 0 126 7 154 43 169 12
5 127 9 255 9 l232 1 0 -170z m3411 141 c16 -20 19 -40 19 -146 0 -174 17
-165 -291 -165 l-239 0 0 170 0 171 246 -3 c245 -3 246 -3 265 -27z"/>
<path d="M1885 4465 c-49 -17 -112 -85 -120 -128 -3 -18 -4 -829 -3 -1804 l3
-1771 31 -39 c62 -76 69 -78 341 -81 l243 -3 25 25 c30 30 32 65 6 97 -19 24
-22 24 -255 29 -196 4 -238 8 -246 20 -6 9 -10 677 -10 1752 0 1565 2 1738 16
1752 13 14 48 16 230 16 234 0 266 6 278 54 8 32 -8 72 -33 85 -31 17 -456 14
-506 -4z"/>
<path d="M2697 4473 c-9 -2 -24 -18 -33 -35 -19 -37 -5 -80 32 -97 16 -7 106
-11 259 -11 199 0 236 -2 249 -16 14 -14 16 -187 16 -1754 0 -1567 -2 -1740
-16 -1754 -13 -14 -50 -16 -252 -16 -202 0 -241 -2 -260 -16 -49 -34 -44 -102
7 -124 20 -8 105 -10 277 -8 280 3 286 5 348 81 l31 39 0 1798 0 1798 -31 39
c-62 77 -67 78 -354 80 -140 1 -263 -1 -273 -4z"/>
<path d="M2240 3155 c0 -41 1 -75 3 -76 1 0 99 -17 217 -38 157 -28 207 -39
185 -44 -16 -4 -104 -18 -195 -32 -223 -35 -212 -28 -208 -117 l3 -73 330 0
330 0 0 45 0 45 -225 5 -225 5 219 38 c121 21 224 40 228 43 10 6 10 75 0 90
-4 6 -99 26 -212 45 l-205 34 203 6 c120 3 207 10 213 16 6 6 9 26 7 44 l-3
34 -332 3 -333 2 0 -75z"/>
<path d="M2570 2600 c-168 -36 -311 -69 -318 -74 -16 -10 -16 -101 1 -113 6
-5 151 -40 321 -76 232 -50 313 -64 323 -56 14 12 18 86 5 107 -5 7 -37 18
-71 24 l-62 12 3 45 3 45 56 11 c30 6 61 15 67 19 7 4 12 29 12 56 0 37 -4 51
-17 58 -12 6 -119 -13 -323 -58z m110 -130 c0 -26 -3 -30 -27 -29 -34 1 -190
26 -183 29 9 5 154 27 183 29 24 1 27 -3 27 -29z"/>
<path d="M2331 2172 c-43 -21 -70 -57 -81 -108 -14 -58 -12 -208 2 -222 9 -9
94 -12 319 -12 345 0 339 -1 339 70 0 65 -12 70 -171 70 -76 0 -139 4 -139 9
0 9 109 41 210 62 86 17 102 31 98 86 -5 71 -15 72 -166 24 -73 -23 -138 -44
-145 -47 -7 -2 -19 7 -28 22 -30 58 -165 84 -238 46z m171 -139 c10 -9 18 -27
18 -40 0 -22 -2 -23 -90 -23 l-90 0 0 29 c0 45 34 63 105 55 22 -3 47 -12 57
-21z"/>
</g>
</svg>
