<?xml version="1.0" standalone="no"?>
<!DOCTYPE svg PUBLIC "-//W3C//DTD SVG 20010904//EN"
 "http://www.w3.org/TR/2001/REC-SVG-20010904/DTD/svg10.dtd">
<svg version="1.0" xmlns="http://www.w3.org/2000/svg"
 width="32.000000pt" height="32.000000pt" viewBox="0 0 32.000000 32.000000"
 preserveAspectRatio="xMidYMid meet">

<g transform="translate(0.000000,32.000000) scale(0.100000,-0.100000)"
fill="#C5BDD8" stroke="none">
<path d="M255 304 c-19 -20 -16 -43 8 -58 20 -13 50 2 55 26 3 16 -23 48 -38
48 -5 0 -16 -7 -25 -16z m48 -18 c9 -22 -19 -42 -37 -26 -19 15 -10 40 14 40
10 0 20 -6 23 -14z"/>
<path d="M38 253 c12 -2 30 -2 40 0 9 3 -1 5 -23 4 -22 0 -30 -2 -17 -4z"/>
<path d="M107 242 c-33 -37 -13 -63 28 -36 32 21 32 10 0 -28 -26 -31 -24 -50
9 -78 9 -7 16 -27 16 -44 0 -36 16 -57 36 -49 17 6 19 104 3 120 -6 6 -8 16
-4 23 5 8 13 5 26 -9 21 -22 54 -27 78 -12 19 12 6 41 -19 41 -15 0 -20 7 -20
28 0 42 -28 62 -87 62 -36 0 -55 -5 -66 -18z m125 -9 c10 -9 18 -29 18 -45 0
-21 5 -28 19 -28 11 0 23 -4 26 -10 4 -6 -8 -10 -29 -10 -32 0 -36 3 -36 25 0
32 -10 32 -40 0 -22 -23 -22 -26 -7 -43 21 -22 24 -106 5 -100 -7 3 -14 21
-16 40 -2 20 -12 44 -23 53 -26 25 -24 34 18 77 l37 38 -31 0 c-18 0 -35 -4
-38 -10 -3 -5 -13 -10 -22 -10 -14 0 -14 3 2 20 23 25 90 27 117 3z"/>
<path d="M0 210 c0 -5 13 -10 30 -10 17 0 30 5 30 10 0 6 -13 10 -30 10 -17 0
-30 -4 -30 -10z"/>
<path d="M23 134 c-7 -18 43 -74 67 -74 18 0 40 19 40 34 0 5 -9 1 -20 -9 -20
-18 -21 -18 -50 10 -30 29 -31 58 -1 31 21 -19 37 -20 47 -4 5 7 2 9 -9 5 -8
-3 -21 1 -27 9 -16 19 -39 18 -47 -2z"/>
</g>
</svg>
