<?xml version="1.0" standalone="no"?>
<!DOCTYPE svg PUBLIC "-//W3C//DTD SVG 20010904//EN"
 "http://www.w3.org/TR/2001/REC-SVG-20010904/DTD/svg10.dtd">
<svg version="1.0" xmlns="http://www.w3.org/2000/svg"
 width="492.000000pt" height="466.000000pt" viewBox="0 0 492.000000 466.000000"
 preserveAspectRatio="xMidYMid meet">

<g transform="translate(0.000000,466.000000) scale(0.100000,-0.100000)"
fill="#C5BDD8" stroke="none">
<path d="M1042 4230 c-70 -17 -144 -84 -177 -163 -22 -54 -23 -1459 0 -1513
26 -63 76 -115 135 -143 l55 -26 320 0 c311 0 321 1 361 22 53 28 99 74 127
127 18 34 22 61 25 166 l3 125 -215 215 c-119 118 -216 222 -216 230 0 8 97
112 215 230 220 220 234 239 199 274 -40 40 -57 28 -316 -232 -188 -187 -248
-253 -248 -272 0 -18 57 -82 235 -260 l235 -236 0 -74 c0 -91 -25 -149 -78
-182 -36 -23 -42 -23 -332 -23 -292 0 -295 0 -333 24 -21 12 -46 40 -57 62
-19 37 -20 61 -20 731 l0 693 23 40 c14 26 37 48 67 63 l44 22 1406 0 c1349 0
1407 -1 1446 -19 23 -10 52 -34 65 -52 l24 -34 2 -705 3 -705 -23 -39 c-12
-22 -38 -49 -57 -60 -34 -20 -52 -21 -686 -26 l-651 -5 -49 -30 c-91 -57 -134
-151 -134 -295 l0 -70 -852 0 c-902 -1 -899 -1 -950 -47 -11 -10 -29 -35 -39
-55 -18 -35 -19 -70 -19 -740 0 -661 2 -705 19 -743 10 -22 28 -48 39 -58 53
-48 -14 -46 1865 -47 1569 0 1772 2 1804 15 50 21 72 42 94 90 17 38 19 82 19
743 0 629 -2 706 -16 735 -23 45 -44 66 -86 88 -32 17 -60 19 -217 19 l-179 0
-4 -54 -3 -55 177 -3 c154 -3 180 -5 195 -21 17 -17 18 -59 18 -711 0 -573 -2
-696 -14 -709 -12 -16 -150 -17 -1791 -17 -1641 0 -1779 1 -1791 17 -12 13
-14 136 -14 709 0 652 1 694 18 711 17 17 70 18 907 23 l889 5 23 23 c21 20
23 34 28 150 4 111 8 131 27 158 47 66 27 64 704 64 534 0 620 2 670 16 73 20
129 68 163 136 l26 52 0 725 0 726 -24 50 c-24 52 -72 101 -129 132 -30 17
-116 18 -1477 20 -795 0 -1460 -2 -1478 -7z"/>
<path d="M2754 3782 c-18 -11 -587 -944 -592 -970 -6 -28 23 -62 53 -62 12 0
31 10 42 23 38 42 583 944 583 965 0 40 -52 67 -86 44z"/>
<path d="M3127 3772 c-10 -10 -17 -27 -17 -38 0 -11 88 -106 222 -241 l223
-223 -223 -223 c-147 -147 -222 -229 -222 -243 0 -27 30 -54 61 -54 34 0 519
485 519 520 0 18 -60 84 -247 272 -261 261 -277 273 -316 230z"/>
<path d="M886 1668 c-21 -30 -20 -44 4 -68 16 -16 33 -20 83 -20 71 0 97 17
97 61 0 40 -18 49 -96 49 -64 0 -75 -3 -88 -22z"/>
<path d="M1250 1671 c-34 -65 3 -91 130 -91 127 0 164 26 130 91 -10 17 -22
19 -130 19 -108 0 -120 -2 -130 -19z"/>
<path d="M1702 1678 c-18 -18 -14 -63 6 -81 15 -14 40 -17 120 -17 89 0 105 3
122 20 24 24 26 53 4 74 -20 20 -233 23 -252 4z"/>
<path d="M2152 1678 c-18 -18 -14 -63 6 -81 15 -13 39 -17 114 -17 53 0 104 3
113 6 27 11 38 53 20 80 -15 23 -21 24 -128 24 -75 0 -117 -4 -125 -12z"/>
<path d="M2595 1666 c-18 -27 -7 -69 20 -80 9 -3 61 -6 114 -6 107 0 131 11
131 61 0 43 -16 49 -137 49 -107 0 -113 -1 -128 -24z"/>
<path d="M3047 1672 c-22 -25 -21 -48 3 -72 17 -17 33 -20 123 -20 114 0 137
10 137 61 0 43 -16 49 -135 49 -96 0 -114 -3 -128 -18z"/>
<path d="M3490 1671 c-34 -65 3 -91 130 -91 127 0 164 26 130 91 -10 17 -22
19 -130 19 -108 0 -120 -2 -130 -19z"/>
<path d="M3942 1678 c-18 -18 -14 -63 6 -81 28 -26 136 -23 162 3 24 24 25 38
4 68 -13 19 -24 22 -88 22 -43 0 -77 -5 -84 -12z"/>
<path d="M883 1274 c-15 -24 -15 -29 -2 -53 14 -25 20 -26 101 -29 94 -3 118
8 118 53 0 44 -24 55 -115 55 -80 0 -85 -1 -102 -26z"/>
<path d="M1286 1285 c-20 -21 -21 -59 0 -79 13 -13 42 -16 164 -16 l150 0 17
26 c15 24 15 29 2 53 l-15 26 -151 3 c-128 2 -154 0 -167 -13z"/>
<path d="M1810 1285 c-7 -8 -12 -26 -12 -40 0 -51 13 -55 169 -55 80 0 153 5
164 10 22 12 27 68 7 88 -8 8 -59 12 -164 12 -123 0 -154 -3 -164 -15z"/>
<path d="M2337 1282 c-22 -24 -21 -55 1 -75 16 -14 43 -17 164 -17 128 0 147
2 161 18 22 24 21 55 -1 75 -16 14 -43 17 -164 17 -128 0 -147 -2 -161 -18z"/>
<path d="M2862 1288 c-20 -20 -15 -76 8 -88 12 -6 77 -9 167 -8 l147 3 15 26
c13 24 13 29 -2 53 l-17 26 -153 0 c-106 0 -157 -4 -165 -12z"/>
<path d="M3383 1274 c-15 -24 -15 -29 -2 -53 l15 -26 151 -3 c164 -3 183 3
183 53 0 49 -19 55 -180 55 l-150 0 -17 -26z"/>
<path d="M3916 1284 c-22 -21 -20 -57 3 -78 15 -14 35 -16 102 -14 78 3 84 5
98 29 13 24 13 29 -2 53 -17 25 -22 26 -102 26 -63 0 -87 -4 -99 -16z"/>
<path d="M890 890 c-24 -24 -25 -38 -4 -68 13 -19 24 -22 88 -22 79 0 96 9 96
50 0 43 -28 60 -98 60 -49 0 -66 -4 -82 -20z"/>
<path d="M1327 892 c-19 -21 -21 -45 -7 -73 10 -17 22 -19 130 -19 112 0 120
1 134 22 21 30 20 44 -4 68 -18 18 -33 20 -128 20 -93 0 -111 -3 -125 -18z"/>
<path d="M1880 890 c-25 -25 -26 -52 -2 -73 17 -15 75 -17 624 -17 573 0 606
1 621 18 22 25 21 48 -3 72 -20 20 -33 20 -620 20 -587 0 -600 0 -620 -20z"/>
<path d="M3432 903 c-25 -10 -34 -53 -17 -79 15 -23 20 -24 135 -24 108 0 120
2 130 19 15 29 12 56 -8 74 -15 14 -39 17 -123 16 -57 0 -110 -3 -117 -6z"/>
<path d="M3947 892 c-20 -22 -22 -63 -5 -80 7 -7 41 -12 84 -12 64 0 75 3 88
22 21 30 20 44 -4 68 -28 28 -139 29 -163 2z"/>
</g>
</svg>
